<svg width="157" height="35" viewBox="0 0 157 35" fill="none" xmlns="http://www.w3.org/2000/svg">
<path d="M17.368 27.256L0.232 20.74V16.06L17.368 9.544V14.044L1.924 19.66V17.14L17.368 22.756V27.256ZM44.9021 31.432C42.9101 31.432 41.0741 31.12 39.3941 30.496C37.7381 29.848 36.2861 28.936 35.0381 27.76C33.8141 26.584 32.8541 25.204 32.1581 23.62C31.4861 22.036 31.1501 20.296 31.1501 18.4C31.1501 16.504 31.4861 14.764 32.1581 13.18C32.8541 11.596 33.8261 10.216 35.0741 9.04C36.3221 7.864 37.7861 6.964 39.4661 6.34C41.1461 5.692 42.9941 5.368 45.0101 5.368C47.2421 5.368 49.2461 5.74 51.0221 6.484C52.8221 7.228 54.3341 8.308 55.5581 9.724L51.8141 13.18C50.9021 12.22 49.9061 11.512 48.8261 11.056C47.7461 10.576 46.5701 10.336 45.2981 10.336C44.0741 10.336 42.9581 10.528 41.9501 10.912C40.9421 11.296 40.0661 11.848 39.3221 12.568C38.6021 13.288 38.0381 14.14 37.6301 15.124C37.2461 16.108 37.0541 17.2 37.0541 18.4C37.0541 19.576 37.2461 20.656 37.6301 21.64C38.0381 22.624 38.6021 23.488 39.3221 24.232C40.0661 24.952 40.9301 25.504 41.9141 25.888C42.9221 26.272 44.0261 26.464 45.2261 26.464C46.3781 26.464 47.4941 26.284 48.5741 25.924C49.6781 25.54 50.7461 24.904 51.7781 24.016L55.0901 28.228C53.7221 29.26 52.1261 30.052 50.3021 30.604C48.5021 31.156 46.7021 31.432 44.9021 31.432ZM49.7621 27.472V18.004H55.0901V28.228L49.7621 27.472ZM60.5075 31V5.8H71.9555C74.6915 5.8 77.1035 6.328 79.1915 7.384C81.2795 8.416 82.9115 9.868 84.0875 11.74C85.2635 13.612 85.8515 15.832 85.8515 18.4C85.8515 20.944 85.2635 23.164 84.0875 25.06C82.9115 26.932 81.2795 28.396 79.1915 29.452C77.1035 30.484 74.6915 31 71.9555 31H60.5075ZM66.3395 26.212H71.6675C73.3475 26.212 74.7995 25.9 76.0235 25.276C77.2715 24.628 78.2315 23.716 78.9035 22.54C79.5995 21.364 79.9475 19.984 79.9475 18.4C79.9475 16.792 79.5995 15.412 78.9035 14.26C78.2315 13.084 77.2715 12.184 76.0235 11.56C74.7995 10.912 73.3475 10.588 71.6675 10.588H66.3395V26.212ZM97.0011 31L86.1291 5.8H92.4291L101.933 28.12H98.2251L107.873 5.8H113.669L102.761 31H97.0011ZM122.32 34.6L134.2 0.687998H139.204L127.324 34.6H122.32ZM139.837 27.256V22.756L155.281 17.14V19.66L139.837 14.044V9.544L156.973 16.06V20.74L139.837 27.256Z" fill="url(#paint0_linear_5_220)"/>
<defs>
<linearGradient id="paint0_linear_5_220" x1="-2" y1="18" x2="156" y2="18" gradientUnits="userSpaceOnUse">
<stop stop-color="#020024"/>
<stop offset="0.325604" stop-color="#091879"/>
<stop offset="1" stop-color="#00D4FF"/>
</linearGradient>
</defs>
</svg>
